With: Robert Arkins, Andrew Strong en Johnny Murphy

Jimmy Rabbitte, che vive di piccoli espedienti in un quartiere proletario di Dublino, si e' messo in testa di organizzare una band musicale per rinverdire i fasti del rythm&blues e del soul. Grazie ad un annuncio sul giornale, Rabbitte comincia a selezionare giovani dal lavoro precario ma pieni di talento: Dean, Fay, Outspan, l'occhialuto Steven , Clifford, Deco, il ciccione senza buone maniere ma con una grande voce, Billy il batterista e Joey "The lips", un bizzarro e maturo anziano suonatore di tromba che si vanta di aver suonato con famosi soul-singers. Aggrega anche Natalie, Imelda e Bernie, tre grintose ragazze, ottime coriste e molto sexy. Procuratisi a credito la strumentazione, cominciano le prove, massacranti, che impegnano tutti. Si inizia a suonare in pubblico, in capannoni e feste sociali: il gruppo sembra pervaso dal fuoco della musica e dell'ambizione. La band, pur se dilettantesca e provinciale... 

General:

Complete name                    : Klambake\The Commitments\The Commitments.avi
Format                           : AVI
Format/Info                      : Audio Video Interleave
File size                        : 1.67 GiB
Duration                         : 1h 52mn
Overall bit rate                 : 2 117 Kbps

Video:

Format                           : MPEG-4 Visual
Format profile                   : Simple@L3
Format settings, BVOP            : No
Format settings, QPel            : No
Format settings, GMC             : No warppoints
Format settings, Matrix          : Default (H.263)
Codec ID                         : XVID
Codec ID/Hint                    : XviD
Duration                         : 1h 52mn
Bit rate                         : 1 658 Kbps
Width                            : 720 pixels
Height                           : 576 pixels
Display aspect ratio             : 5:4
Frame rate                       : 25.000 fps
Standard                         : PAL
Color space                      : YUV
Chroma subsampling               : 4:2:0
Bit depth                        : 8 bits
Scan type                        : Progressive
Bits/(Pixel*Frame)               : 0.160
Stream size                      : 1.30 GiB (78%)
Writing library                  : XviD 1.1.2 (UTC 2006-11-01)

Audio:

Format                           : AC-3
Format/Info                      : Audio Coding 3
Mode extension                   : CM (complete main)
Codec ID                         : 2000
Duration                         : 1h 52mn
Bit rate mode                    : Constant
Bit rate                         : 448 Kbps
Channel(s)                       : 6 channels
Channel positions                : Front: L C R, Side: L R, LFE
Sampling rate                    : 48.0 KHz
Bit depth                        : 16 bits
Stream size                      : 361 MiB (21%)
Alignment                        : Aligned on interleaves
Interleave, duration             : 32 ms (0.80 video frame)
Interleave, preload duration     : 64 ms
